<?xml version="1.0" encoding="UTF-8"?>
<svg version="1.1" xmlns="http://www.w3.org/2000/svg" width="1200" height="1200">
<path d="M0 0 C3.43758273 1.37409514 5.81262932 3.10421832 8.67578125 5.45703125 C9.81905381 6.37559219 10.96502427 7.29080254 12.11328125 8.203125 C13.02207031 8.92604736 13.02207031 8.92604736 13.94921875 9.66357422 C17.27320172 12.23542124 20.72653253 14.61986602 24.17578125 17.01953125 C29.8183069 20.9611363 35.37722617 24.9879148 40.86328125 29.14453125 C46.31328293 33.27105721 51.82893389 37.28193648 57.42578125 41.20703125 C63.11158893 45.20147031 68.79194517 49.20196236 74.42578125 53.26953125 C75.07554932 53.73109619 75.72531738 54.19266113 76.39477539 54.66821289 C77.9215941 55.77735448 79.39843481 56.95474331 80.86328125 58.14453125 C80.86328125 58.80453125 80.86328125 59.46453125 80.86328125 60.14453125 C74.57506606 62.80710885 68.26709255 65.42340231 61.92578125 67.95703125 C60.88550781 68.37597656 59.84523438 68.79492188 58.7734375 69.2265625 C55.71604636 70.19097447 54.01742643 70.71409616 50.86328125 70.14453125 C48.25937771 68.6286382 45.95998703 66.77743382 43.61328125 64.89453125 C42.1827316 63.7829108 40.75038145 62.67360426 39.31640625 61.56640625 C38.21329102 60.71079102 38.21329102 60.71079102 37.08789062 59.83789062 C33.58429264 57.17097276 29.97759541 54.65823814 26.36328125 52.14453125 C19.788631 47.56164679 13.3599702 42.81652516 7.0390625 37.88867188 C6.41773438 37.41236328 5.79640625 36.93605469 5.15625 36.4453125 C4.34450317 35.81363159 4.34450317 35.81363159 3.51635742 35.16918945 C1.56961657 33.96250338 0.147793 33.3877052 -2.13671875 33.14453125 C-4.02507032 33.96801161 -4.02507032 33.96801161 -5.796875 35.3984375 C-6.49868896 35.91639893 -7.20050293 36.43436035 -7.92358398 36.96801758 C-8.67454346 37.54189209 -9.42550293 38.1157666 -10.19921875 38.70703125 C-11.37883179 39.58427856 -11.37883179 39.58427856 -12.58227539 40.47924805 C-14.25296507 41.72264037 -15.91977899 42.97125453 -17.58300781 44.22460938 C-20.91398951 46.72889619 -24.27200294 49.19540769 -27.63085938 51.66210938 C-30.04964666 53.43898029 -32.46475223 55.220747 -34.87890625 57.00390625 C-41.26674219 61.71893635 -47.69047768 66.38321729 -54.1328125 71.0234375 C-62.0820117 76.75149818 -70.00719468 82.50838058 -77.88671875 88.33203125 C-88.85500492 96.43544162 -99.94697779 104.34947958 -111.13671875 112.14453125 C-108.50427295 121.04954883 -105.7318355 129.91059535 -102.94921875 138.76953125 C-102.70517303 139.54652374 -102.46112732 140.32351624 -102.20968628 141.12405396 C-98.3621355 153.36056032 -94.39723416 165.5512338 -90.29541016 177.70507812 C-88.08178702 184.27598473 -85.8850859 190.8525479 -83.68942261 197.42947388 C-82.91034223 199.76132428 -82.12921765 202.0924823 -81.34790039 204.42358398 C-78.49156933 212.96302024 -75.74823917 221.52636273 -73.13671875 230.14453125 C-72.31182429 232.80440814 -71.48249178 235.46285377 -70.65234375 238.12109375 C-70.13671875 240.14453125 -70.13671875 240.14453125 -70.13671875 243.14453125 C-67.82671875 243.47453125 -65.51671875 243.80453125 -63.13671875 244.14453125 C-63.16022447 242.92422777 -63.16022447 242.92422777 -63.18420506 241.6792717 C-63.56029217 221.8475983 -63.84126252 202.01654249 -64.01752567 182.1820488 C-64.10504236 172.58978657 -64.22425334 162.99990998 -64.41918945 153.40917969 C-64.58909899 145.04572522 -64.69841242 136.68399845 -64.73622316 128.31886601 C-64.75831704 123.89194673 -64.80987268 119.46996769 -64.93412971 115.04463959 C-65.65995222 88.16842503 -65.65995222 88.16842503 -61.49979782 81.53407288 C-57.66325142 77.52608495 -53.36577643 75.18419957 -48.27012444 73.11130524 C-44.83587599 71.55504143 -42.0461259 69.25971109 -39.13671875 66.89453125 C-34.24310173 63.14453125 -34.24310173 63.14453125 -33.13671875 63.14453125 C-33.13671875 131.12453125 -33.13671875 199.10453125 -33.13671875 269.14453125 C-36.0557947 267.68499327 -38.79023208 266.2002517 -41.57421875 264.51953125 C-42.44046875 263.99746094 -43.30671875 263.47539063 -44.19921875 262.9375 C-46.33041864 261.63667454 -48.45488532 260.32767577 -50.57421875 259.0078125 C-51.15502197 258.64703613 -51.7358252 258.28625977 -52.33422852 257.91455078 C-54.00844143 256.87295403 -55.68005706 255.82718606 -57.3515625 254.78125 C-60.08033028 253.04776394 -60.08033028 253.04776394 -63.13671875 252.14453125 C-63.13671875 250.49453125 -63.13671875 248.84453125 -63.13671875 247.14453125 C-64.10609375 247.26828125 -65.07546875 247.39203125 -66.07421875 247.51953125 C-70.60035476 247.54707366 -73.37444292 245.34619499 -76.92578125 242.75 C-79.2559315 241.0579651 -81.65770291 239.60854669 -84.13671875 238.14453125 C-87.81848836 235.83471655 -91.47876926 233.49184979 -95.13671875 231.14453125 C-96.09771484 230.53158203 -96.09771484 230.53158203 -97.078125 229.90625 C-102.49344995 226.39103907 -104.39155805 224.12104089 -106.19921875 217.83203125 C-108.48786521 210.12611468 -111.00438331 202.51094242 -113.57421875 194.89453125 C-118.55428233 180.067003 -123.2899865 165.16499461 -128.00219727 150.25048828 C-130.6152751 141.99133022 -133.23956824 133.73986559 -136.03125 125.5390625 C-136.45591553 124.28955811 -136.88058105 123.04005371 -137.31811523 121.75268555 C-138.08651633 119.51035001 -138.86276057 117.27067895 -139.64868164 115.03442383 C-143.12414778 104.91673204 -143.12414778 104.91673204 -142.13671875 101.14453125 C-139.90287854 98.85575392 -137.32704142 97.22818713 -134.63671875 95.51953125 C-133.06221029 94.46722157 -131.48932974 93.41247263 -129.91796875 92.35546875 C-129.11617188 91.82276367 -128.314375 91.29005859 -127.48828125 90.74121094 C-123.94181165 88.33320521 -120.54167371 85.74696294 -117.13671875 83.14453125 C-111.71200955 79.03177617 -106.2149808 75.04632894 -100.63671875 71.14453125 C-94.3088798 66.71786214 -88.1015041 62.15772211 -81.94091797 57.50170898 C-76.0486815 53.05601294 -70.05356298 48.76795152 -64.03515625 44.49560547 C-53.96604489 37.32965096 -43.98222461 30.0600482 -34.12353516 22.60742188 C-28.52334171 18.39297278 -22.81820691 14.33765737 -17.07006836 10.32788086 C-16.41143799 9.86776611 -15.75280762 9.40765137 -15.07421875 8.93359375 C-14.10162109 8.26118652 -14.10162109 8.26118652 -13.109375 7.57519531 C-11.72715462 6.57274341 -10.38273633 5.51704399 -9.0703125 4.42480469 C-3.91331844 0.1803148 -3.91331844 0.1803148 0 0 Z " fill="#1B1464" transform="translate(601.13671875,290.85546875)"/>
<path d="M0 0 C3.56051004 0.89012751 4.77611431 1.338757 7.50390625 3.44140625 C8.15738037 3.93922607 8.81085449 4.4370459 9.48413086 4.94995117 C10.51292358 5.74816284 10.51292358 5.74816284 11.5625 6.5625 C12.99167173 7.6543213 14.42136187 8.74546433 15.8515625 9.8359375 C16.55313477 10.3731543 17.25470703 10.91037109 17.97753906 11.46386719 C21.6236789 14.23324332 25.34269011 16.89943267 29.05859375 19.57421875 C31 21 31 21 32 22 C32.11669955 24.13761401 32.16196624 26.27913142 32.18081665 28.41984558 C32.18802117 29.09841986 32.19522568 29.77699413 32.20264852 30.47613126 C32.22550382 32.76686683 32.24098328 35.05759143 32.25634766 37.34838867 C32.27078868 38.9841031 32.2855462 40.61981476 32.30059814 42.25552368 C32.43098286 57.20112711 32.4967491 72.14748661 32.54844093 87.09354687 C32.58736066 98.1464103 32.65571845 109.1982554 32.76298869 120.25067157 C32.83582174 128.01630998 32.87427269 135.78166975 32.88746679 143.54763585 C32.8963379 148.18845641 32.92063557 152.82801925 32.98213577 157.46846581 C33.03936409 161.83637519 33.05406157 166.2023781 33.03626251 170.57060623 C33.03714129 172.17266797 33.05341406 173.77480734 33.08630753 175.3765316 C33.32215007 187.49082114 33.32215007 187.49082114 30.02187729 191.25794411 C27.72955141 192.81203885 25.55248148 193.94169605 23 195 C22.10667969 195.54269531 21.21335937 196.08539062 20.29296875 196.64453125 C19.25076172 197.22267578 19.25076172 197.22267578 18.1875 197.8125 C17.47980469 198.21082031 16.77210938 198.60914063 16.04296875 199.01953125 C14.03434457 199.98351723 12.17527888 200.54539115 10 201 C10 201.66 10 202.32 10 203 C6.27034861 205.03435531 4.33094958 206 0 206 C0 138.02 0 70.04 0 0 Z " fill="#F26522" transform="translate(587,354)"/>
<path d="M0 0 C0 67.98 0 135.96 0 206 C-2.91907595 204.54046202 -5.65351333 203.05572045 -8.4375 201.375 C-9.736875 200.59189453 -9.736875 200.59189453 -11.0625 199.79296875 C-13.19369989 198.49214329 -15.31816657 197.18314452 -17.4375 195.86328125 C-18.01830322 195.50250488 -18.59910645 195.14172852 -19.19750977 194.77001953 C-20.87172268 193.72842278 -22.54333831 192.68265481 -24.21484375 191.63671875 C-26.94361153 189.90323269 -26.94361153 189.90323269 -30 189 C-30.39776288 167.30353768 -30.69720865 145.6076793 -30.88080692 123.90830612 C-30.96833671 113.83183407 -31.08757583 103.75763178 -31.2824707 93.68261719 C-31.45233637 84.89726185 -31.56168408 76.11355031 -31.59950441 67.32659841 C-31.62160463 62.67621957 -31.67321043 58.03054129 -31.79741096 53.38167572 C-32.58332669 22.79748676 -32.58332669 22.79748676 -26.34835815 16.17736816 C-22.88419341 13.3863041 -19.2594983 11.55485419 -15.13340569 9.93857574 C-11.68061112 8.41954481 -8.90547773 6.11942637 -6 3.75 C-1.10638298 0 -1.10638298 0 0 0 Z " fill="#DACC2D" transform="translate(568,354)"/>
<path d="M0 0 C3.77370753 1.50948301 6.04774543 2.56103428 9.1796875 4.86328125 C9.94410156 5.42080078 10.70851563 5.97832031 11.49609375 6.55273438 C12.28113281 7.13345703 13.06617188 7.71417969 13.875 8.3125 C15.43480732 9.45454798 16.99470196 10.59647671 18.5546875 11.73828125 C19.24030762 12.24399658 19.92592773 12.74971191 20.63232422 13.27075195 C22.82644996 14.96755298 22.82644996 14.96755298 24.72616196 15.88623714 C27.70601457 17.57523372 29.64977406 18.85638618 30.67926979 22.21806049 C30.97059224 25.06506497 31.03722931 27.84396667 31.03271484 30.70605469 C31.05783142 31.78472809 31.082948 32.86340149 31.10882568 33.97476196 C31.1804197 37.54100537 31.19895697 41.10496384 31.2109375 44.671875 C31.23597378 47.15424501 31.26191646 49.63660603 31.28872681 52.11895752 C31.33516309 57.3243002 31.35211812 62.52883621 31.35205078 67.734375 C31.35275169 74.39584767 31.46278161 81.05063948 31.59465599 87.71091843 C31.68014187 92.83966802 31.69736834 97.96701865 31.6957283 103.09641266 C31.7058166 105.55093752 31.74029794 108.00549078 31.79990768 110.45931244 C32.21305618 129.12434658 32.21305618 129.12434658 28.5631485 133.86705017 C25.08638864 136.88569427 21.25793713 138.61858645 16.96969986 140.19368744 C13.62283255 141.56375463 10.6934767 143.57376014 7.6875 145.5625 C2.23976608 149 2.23976608 149 0 149 C0 99.83 0 50.66 0 0 Z " fill="#2B9AD3" transform="translate(631,386)"/>
<path d="M0 0 C2.70941085 2.82721132 3.83062925 5.64416261 4.19921875 9.546875 C3.84913561 13.85770267 2.05188175 17.61417411 0.3984375 21.57421875 C-0.93980326 24.85253479 -2.03831649 28.11200096 -3.0625 31.5 C-3.38734375 32.56089844 -3.7121875 33.62179687 -4.046875 34.71484375 C-4.70588749 36.98627613 -5.31759514 39.27177353 -5.890625 41.56640625 C-8.47833105 51.3799525 -8.47833105 51.3799525 -12.1875 53.6875 C-16.26508838 55.38058561 -20.66102575 56.25224027 -25 57 C-30.28087823 47.45566044 -33.50437028 40.12123156 -30.73828125 29.3203125 C-29.68577847 26.01244663 -28.39113711 22.83130941 -27 19.65234375 C-25.94258612 17.16188202 -25.94258612 17.16188202 -25.75708008 15.046875 C-25.43316385 12.76549266 -25.05902531 11.05338351 -24 9 C-21.11258061 7.03420238 -18.01645046 6.11502244 -14.6875 5.125 C-13.83220703 4.84398437 -12.97691406 4.56296875 -12.09570312 4.2734375 C-10.45486296 3.73454034 -8.81026948 3.20689725 -7.16162109 2.69238281 C-4.72259202 1.91114423 -2.35701741 1.00112492 0 0 Z " fill="#1B1464" transform="translate(704,489)"/>
<path d="M0 0 C6.56609802 4.54664784 10.32173111 10.81722536 12.22265625 18.5390625 C13.28904255 28.40014031 12.13878924 37.94085477 5.8359375 45.8984375 C0.21570872 51.6139244 -5.25863745 53.94077526 -13.27734375 54.2890625 C-20.41951527 53.96474593 -25.46947736 52.39055159 -30.77734375 47.5390625 C-37.4329365 39.74409897 -39.26721439 32.20830395 -39.0859375 22.078125 C-38.32399073 13.33984934 -34.42168887 6.24925217 -27.77734375 0.5390625 C-18.95918031 -5.36193912 -9.09133577 -5.15800032 0 0 Z M-27.58984375 9.2890625 C-32.13225753 16.03779155 -33.87867173 22.38670364 -32.77734375 30.5390625 C-30.88662855 37.81653234 -26.76464946 42.18465835 -20.77734375 46.5390625 C-16.82638388 48.51454243 -12.08367775 47.97213575 -7.77734375 47.5390625 C-1.77901548 44.65097852 2.43347873 39.84172042 5.03515625 33.7265625 C7.21855036 27.17638016 6.97367583 20.80605228 4.26171875 14.45703125 C0.93914648 8.32401251 -2.97604604 4.56751971 -9.77734375 2.5390625 C-17.19201506 1.59537706 -22.38518954 4.20006727 -27.58984375 9.2890625 Z " fill="#010C08" transform="translate(220.77734375,574.4609375)"/>
<path d="M0 0 C24.94479405 0 24.94479405 0 32.875 7.25 C39.25834288 14.26565514 41.40259806 21.90768918 41.27734375 31.24609375 C40.33975209 40.55598279 36.24111738 47.69987655 29.12890625 53.53515625 C19.83900251 59.48003226 11.70291047 57 0 57 C0 38.19 0 19.38 0 0 Z M6 6 C6 20.85 6 35.7 6 51 C19.35813838 51.55776481 19.35813838 51.55776481 29 45 C33.12121114 40.03341221 34.6548819 35.04854317 35.375 28.6875 C34.52813038 20.35994878 31.52999805 14.69478964 25.09765625 9.375 C18.35025571 4.95212292 14.79437283 6 6 6 Z " fill="#000000" transform="translate(135,571)"/>
<path d="M0 0 C1.98 0 3.96 0 6 0 C7.48080132 3.68684548 8.95928921 7.37461519 10.4375 11.0625 C10.83904297 12.06216797 11.24058594 13.06183594 11.65429688 14.09179688 C16.17149928 25.36756166 20.58265153 36.68483205 25 48 C25.22328476 47.41340103 25.44656952 46.82680206 25.67662048 46.22242737 C27.99302247 40.13850737 30.31315518 34.05601991 32.63549805 27.97436523 C33.50267547 25.70194736 34.3688884 23.42916119 35.23413086 21.15600586 C36.47518922 17.89600767 37.71966629 14.63733296 38.96484375 11.37890625 C39.35341049 10.35599991 39.74197723 9.33309357 40.14231873 8.27919006 C40.50261673 7.33829025 40.86291473 6.39739044 41.23413086 5.42797852 C41.71045204 4.17888451 41.71045204 4.17888451 42.19639587 2.90455627 C43 1 43 1 44 0 C45.98 0 47.96 0 50 0 C50 18.15 50 36.3 50 55 C48.68 55 47.36 55 46 55 C45.67 40.15 45.34 25.3 45 10 C39.39 24.85 33.78 39.7 28 55 C26.02 55 24.04 55 22 55 C16.39 40.48 10.78 25.96 5 11 C4.67 25.52 4.34 40.04 4 55 C2.68 55 1.36 55 0 55 C0 36.85 0 18.7 0 0 Z " fill="#010C08" transform="translate(878,572)"/>
<path d="M0 0 C3.88653366 3.00549129 7.2651804 5.8977706 10 10 C10 11.32 10 12.64 10 14 C8.35 14.33 6.7 14.66 5 15 C4.57589844 14.45730469 4.15179688 13.91460938 3.71484375 13.35546875 C-0.07135048 8.73714392 -3.02702777 5.5447342 -9 4 C-14.99105312 3.76917133 -19.43570647 4.95437619 -24 9 C-29.33817292 16.17543027 -30.68156448 22.10314934 -30 31 C-28.56627961 37.27252671 -25.73603534 42.11083274 -20.375 45.8125 C-15.09493508 47.67030062 -10.01368801 48.20753938 -4.71875 46.0859375 C-0.17302955 43.45688276 2.45568669 40.55856135 5 36 C6.65 36.66 8.3 37.32 10 38 C9.67641481 43.33915556 6.76679737 46.50639893 3 50 C-2.6632581 54.49381501 -8.61828711 54.44140503 -15.6328125 54.43359375 C-21.62276623 53.6622656 -27.0144374 50.55339814 -31 46 C-36.67178769 36.47078682 -38.85447923 27.18875469 -36.3515625 16.13671875 C-33.58511829 8.53490837 -29.00283043 2.19643905 -21.6875 -1.5 C-14.21578755 -4.3639443 -6.9642052 -3.99796965 0 0 Z " fill="#000000" transform="translate(276,574)"/>
<path d="M0 0 C1.12591553 0.00523682 2.25183105 0.01047363 3.41186523 0.01586914 C4.62680664 0.0190918 5.84174805 0.02231445 7.09350586 0.02563477 C8.37290039 0.03401367 9.65229492 0.04239258 10.97045898 0.05102539 C12.2537207 0.05553711 13.53698242 0.06004883 14.85913086 0.06469727 C18.04211921 0.07652994 21.22501661 0.09301471 24.40795898 0.11352539 C24.40795898 2.09352539 24.40795898 4.07352539 24.40795898 6.11352539 C17.14795898 6.11352539 9.88795898 6.11352539 2.40795898 6.11352539 C2.40795898 12.71352539 2.40795898 19.31352539 2.40795898 26.11352539 C8.34795898 26.11352539 14.28795898 26.11352539 20.40795898 26.11352539 C20.40795898 27.76352539 20.40795898 29.41352539 20.40795898 31.11352539 C19.40795898 32.11352539 19.40795898 32.11352539 15.59155273 32.21118164 C14.00948851 32.20543677 12.42744867 32.19242132 10.84545898 32.17602539 C8.06108398 32.15540039 5.27670898 32.13477539 2.40795898 32.11352539 C2.40795898 38.38352539 2.40795898 44.65352539 2.40795898 51.11352539 C3.91229492 51.10192383 5.41663086 51.09032227 6.96655273 51.07836914 C8.92618692 51.0689929 10.88582243 51.05989252 12.84545898 51.05102539 C14.33529297 51.03845703 14.33529297 51.03845703 15.85522461 51.02563477 C16.79946289 51.02241211 17.74370117 51.01918945 18.71655273 51.01586914 C19.59110107 51.01063232 20.46564941 51.00539551 21.36669922 51 C23.40795898 51.11352539 23.40795898 51.11352539 24.40795898 52.11352539 C24.40795898 53.76352539 24.40795898 55.41352539 24.40795898 57.11352539 C15.16795898 57.11352539 5.92795898 57.11352539 -3.59204102 57.11352539 C-3.61298705 49.83594078 -3.63302508 42.55846476 -3.6437912 35.28087616 C-3.64908071 31.89215308 -3.65615382 28.50345483 -3.66748047 25.11474609 C-3.68038368 21.23022762 -3.68527025 17.34571942 -3.68969727 13.46118164 C-3.69485855 12.24141129 -3.70001984 11.02164093 -3.70533752 9.76490784 C-3.70541306 8.64382126 -3.70548859 7.52273468 -3.70556641 6.36767578 C-3.70778702 5.37506241 -3.71000763 4.38244904 -3.71229553 3.35975647 C-3.53865219 0.11627689 -3.26740042 0.14310457 0 0 Z " fill="#010C08" transform="translate(297.592041015625,570.886474609375)"/>
<path d="M0 0 C1.98 0 3.96 0 6 0 C8.06713867 2.3605957 8.06713867 2.3605957 9.91796875 5.67578125 C10.26072342 6.27440475 10.60347809 6.87302826 10.95661926 7.48979187 C12.05514857 9.41940753 13.12157739 11.36471811 14.1875 13.3125 C14.88397364 14.55000901 15.58252582 15.78635062 16.28320312 17.02148438 C18.53462046 21.00729639 20.76684471 25.00392757 23 29 C26.63 35.27 30.26 41.54 34 48 C34.33 32.16 34.66 16.32 35 0 C36.32 0 37.64 0 39 0 C39 18.15 39 36.3 39 55 C36.69 55 34.38 55 32 55 C31.67950684 54.42894531 31.35901367 53.85789062 31.02880859 53.26953125 C22.50112589 38.09043702 13.80033667 23.02279693 5 8 C4.67 23.51 4.34 39.02 4 55 C2.68 55 1.36 55 0 55 C0 36.85 0 18.7 0 0 Z " fill="#010C08" transform="translate(713,572)"/>
<path d="M0 0 C3.58508351 2.57485379 6.25220735 5.70538157 8.2734375 9.6328125 C8.2734375 10.6228125 8.2734375 11.6128125 8.2734375 12.6328125 C7.2834375 12.9628125 6.2934375 13.2928125 5.2734375 13.6328125 C4.89832031 13.09011719 4.52320313 12.54742188 4.13671875 11.98828125 C0.74075147 7.24077032 -1.99211029 4.00211164 -7.6015625 1.9453125 C-14.30910467 0.95890924 -19.23045222 1.65287057 -24.7265625 5.6328125 C-30.1653004 11.16759875 -32.34327377 16.73604376 -33.1015625 24.4453125 C-32.91383765 30.87801731 -30.35374042 36.67185449 -26.2890625 41.5703125 C-25.4434375 42.2509375 -24.5978125 42.9315625 -23.7265625 43.6328125 C-23.0253125 44.2309375 -22.3240625 44.8290625 -21.6015625 45.4453125 C-16.53727198 47.53708467 -10.81179045 47.68575268 -5.59765625 45.90625 C2.12053893 41.80543787 4.37600397 35.39379517 7.2734375 27.6328125 C1.9934375 27.6328125 -3.2865625 27.6328125 -8.7265625 27.6328125 C-8.7265625 26.3128125 -8.7265625 24.9928125 -8.7265625 23.6328125 C-2.1265625 23.6328125 4.4734375 23.6328125 11.2734375 23.6328125 C11.2734375 32.64045457 10.20411219 38.94306239 3.8984375 45.5703125 C-0.97292267 50.26852006 -5.87163377 52.06281815 -12.6015625 52.0703125 C-20.51038166 51.87051075 -25.46075329 50.24995763 -30.9765625 44.5703125 C-36.04820089 38.08526669 -38.427736 30.23589203 -38.05078125 22.046875 C-36.81723694 12.86217159 -32.70794589 5.70868661 -25.50390625 -0.109375 C-17.66542885 -5.65660516 -7.99381849 -4.41299128 0 0 Z " fill="#010C08" transform="translate(600.7265625,575.3671875)"/>
<path d="M0 0 C22.38461538 0 22.38461538 0 29.8125 6.4375 C30.534375 7.283125 31.25625 8.12875 32 9 C32.721875 9.804375 33.44375 10.60875 34.1875 11.4375 C39.19362653 18.51512716 39.01670147 27.66899106 38 36 C35.94095819 43.40297357 31.34560766 48.76959489 25 53 C20 55 20 55 0 55 C0 36.85 0 18.7 0 0 Z M4 4 C4 19.51 4 35.02 4 51 C16.76301898 51.92760873 16.76301898 51.92760873 26.1953125 46.85546875 C32.78633733 40.07898218 34.38290918 33.57965194 34.26953125 24.29296875 C33.63587936 16.55139567 29.84260956 12.35650519 24.09765625 7.4453125 C17.18689304 2.68370657 13.15377368 4 4 4 Z " fill="#010C08" transform="translate(1026,572)"/>
<path d="M0 0 C1.65 0 3.3 0 5 0 C9.33214759 9.95554633 13.06694898 20.11607136 16.78588867 30.3125 C17.82355313 33.15528109 18.86760428 35.99566368 19.91210938 38.8359375 C20.57329797 40.6430897 21.23411912 42.4503764 21.89453125 44.2578125 C22.36316338 45.53109909 22.36316338 45.53109909 22.84126282 46.83010864 C23.12543564 47.61207611 23.40960846 48.39404358 23.70239258 49.19970703 C23.95378494 49.88743195 24.20517731 50.57515686 24.46418762 51.28372192 C25 53 25 53 25 55 C23.35 55 21.7 55 20 55 C19.32942113 53.2097939 18.6636531 51.41778511 18 49.625 C17.62875 48.62726562 17.2575 47.62953125 16.875 46.6015625 C16 44 16 44 16 42 C7.09 42 -1.82 42 -11 42 C-11.99 45.3 -12.98 48.6 -14 52 C-14.33 52.99 -14.66 53.98 -15 55 C-16.65 55 -18.3 55 -20 55 C-15.65756394 42.41610958 -11.17062424 29.88664276 -6.625 17.375 C-6.21948914 16.25703537 -6.21948914 16.25703537 -5.80578613 15.1164856 C-5.03077341 12.98079244 -4.2539939 10.84575123 -3.4765625 8.7109375 C-3.24141937 8.06280594 -3.00627625 7.41467438 -2.76400757 6.74690247 C-1.92368805 4.44502846 -1.09690091 2.19380182 0 0 Z M2 6 C0.42931142 10.23432728 -1.13715849 14.47018165 -2.69970703 18.70751953 C-3.23207236 20.14935584 -3.76559627 21.59076492 -4.30029297 23.03173828 C-5.06781766 25.1007798 -5.8311884 27.17131251 -6.59375 29.2421875 C-6.83436157 29.88807831 -7.07497314 30.53396912 -7.32287598 31.19943237 C-8.58702153 34.51246197 -8.58702153 34.51246197 -9 38 C-1.41 38 6.18 38 14 38 C11.75566711 29.51242899 11.75566711 29.51242899 8.95703125 21.33203125 C8.60576172 20.42001953 8.25449219 19.50800781 7.89257812 18.56835938 C7.53615234 17.65892578 7.17972656 16.74949219 6.8125 15.8125 C6.44447266 14.86052734 6.07644531 13.90855469 5.69726562 12.92773438 C4.80299502 10.6165675 3.90388178 8.30742093 3 6 C2.67 6 2.34 6 2 6 Z " fill="#010C08" transform="translate(778,572)"/>
<path d="M0 0 C1.2065625 0.0309375 1.2065625 0.0309375 2.4375 0.0625 C5.04708343 7.08524771 7.65492802 14.10863845 10.26052856 21.13286495 C11.4703499 24.39415464 12.68077865 27.65521624 13.89257812 30.91577148 C15.28434198 34.66063227 16.67349539 38.4064586 18.0625 42.15234375 C18.71871338 43.91637794 18.71871338 43.91637794 19.38818359 45.71604919 C19.78859863 46.79709427 20.18901367 47.87813934 20.6015625 48.99194336 C20.95686035 49.94902695 21.3121582 50.90611053 21.67822266 51.89219666 C22.4375 54.0625 22.4375 54.0625 22.4375 55.0625 C20.7875 55.0625 19.1375 55.0625 17.4375 55.0625 C16.76444982 53.46100114 16.09927773 51.85618971 15.4375 50.25 C15.06625 49.35667969 14.695 48.46335937 14.3125 47.54296875 C13.4375 45.0625 13.4375 45.0625 13.4375 42.0625 C0.0725 42.5575 0.0725 42.5575 -13.5625 43.0625 C-14.8825 46.6925 -16.2025 50.3225 -17.5625 54.0625 C-20.0375 54.5575 -20.0375 54.5575 -22.5625 55.0625 C-20.55562879 48.10914405 -18.28610998 41.29347789 -15.8046875 34.49609375 C-15.4561673 33.53598892 -15.10764709 32.57588409 -14.74856567 31.58668518 C-14.01881568 29.57869107 -13.28766979 27.57120374 -12.55517578 25.56420898 C-11.42968455 22.47857324 -10.3102856 19.39077296 -9.19140625 16.30273438 C-8.47952756 14.34622282 -7.76730073 12.38983789 -7.0546875 10.43359375 C-6.55157547 9.04472206 -6.55157547 9.04472206 -6.03829956 7.62779236 C-5.72772614 6.77923172 -5.41715271 5.93067108 -5.09716797 5.05639648 C-4.68771439 3.93248756 -4.68771439 3.93248756 -4.26998901 2.78587341 C-3.16590738 0.09643953 -3.0384615 0.07410882 0 0 Z M-0.5625 6.0625 C-2.1354434 10.13519123 -3.70183576 14.21032243 -5.26220703 18.2878418 C-5.79394063 19.67459913 -6.32745802 21.06067385 -6.86279297 22.44604492 C-7.63198357 24.43752078 -8.39472484 26.43136369 -9.15625 28.42578125 C-9.61708984 29.62501221 -10.07792969 30.82424316 -10.55273438 32.05981445 C-11.72187336 35.00843251 -11.72187336 35.00843251 -11.5625 38.0625 C-3.9725 38.0625 3.6175 38.0625 11.4375 38.0625 C9.07058852 30.09579468 9.07058852 30.09579468 6.39453125 22.2734375 C6.04326172 21.31308594 5.69199219 20.35273437 5.33007812 19.36328125 C4.79543945 17.91501953 4.79543945 17.91501953 4.25 16.4375 C3.88197266 15.43332031 3.51394531 14.42914062 3.13476562 13.39453125 C2.23827369 10.94955325 1.33915072 8.50557919 0.4375 6.0625 C0.1075 6.0625 -0.2225 6.0625 -0.5625 6.0625 Z " fill="#010C08" transform="translate(684.5625,571.9375)"/>
<path d="M0 0 C1.98 0 3.96 0 6 0 C6.43699219 1.24366333 6.43699219 1.24366333 6.8828125 2.51245117 C8.25242129 6.40512269 9.62527119 10.29663426 11 14.1875 C11.37132553 15.23919373 11.37132553 15.23919373 11.75015259 16.31213379 C15.2510373 26.21591319 18.84640171 36.0721681 22.71289062 45.84057617 C23.17018555 47.01003784 23.17018555 47.01003784 23.63671875 48.203125 C23.90186279 48.86989258 24.16700684 49.53666016 24.44018555 50.22363281 C25 52 25 52 25 55 C23.35 54.67 21.7 54.34 20 54 C18.02 48.555 18.02 48.555 16 43 C7.42 43 -1.16 43 -10 43 C-11.65 46.96 -13.3 50.92 -15 55 C-16.32 55 -17.64 55 -19 55 C-18.34027315 48.89411422 -16.09706199 43.40685117 -13.96484375 37.6953125 C-13.56672989 36.61619598 -13.16861603 35.53707947 -12.75843811 34.42526245 C-11.4897734 30.98997527 -10.21374521 27.55747723 -8.9375 24.125 C-8.07438227 21.79184696 -7.21174648 19.45851557 -6.34960938 17.125 C-4.23865415 11.41458785 -2.12165187 5.70644594 0 0 Z M2 7 C0.43138156 11.25339842 -1.13514517 15.50755891 -2.69970703 19.76245117 C-3.23265552 21.21090696 -3.76618298 22.65914984 -4.30029297 24.10717773 C-5.06628987 26.18418047 -5.83022617 28.26193083 -6.59375 30.33984375 C-6.83436157 30.99089584 -7.07497314 31.64194794 -7.32287598 32.31272888 C-8.50204786 35.08460673 -8.50204786 35.08460673 -9 38 C-1.08 38 6.84 38 15 38 C9.555 22.655 9.555 22.655 4 7 C3.34 7 2.68 7 2 7 Z " fill="#010C08" transform="translate(475,572)"/>
<path d="M0 0 C23.72383073 0 23.72383073 0 29.875 5.75390625 C33.38775803 11.40115267 33.90548663 16.44025239 33 23 C31.24284831 28.27145507 28.38900674 30.82497385 24 34 C23.34 34 22.68 34 22 34 C22.33322266 34.60062256 22.66644531 35.20124512 23.00976562 35.82006836 C24.50868755 38.52467905 26.00438406 41.23105986 27.5 43.9375 C28.02464844 44.88302734 28.54929687 45.82855469 29.08984375 46.80273438 C29.58613281 47.70185547 30.08242188 48.60097656 30.59375 49.52734375 C31.05458984 50.35999756 31.51542969 51.19265137 31.99023438 52.05053711 C33 54 33 54 33 55 C30.828125 55.5234375 30.828125 55.5234375 28 55 C25.82683904 52.45616078 24.32796298 49.56360172 22.75 46.625 C22.30398438 45.8309375 21.85796875 45.036875 21.3984375 44.21875 C19.87995801 41.50389273 18.3911781 38.78235619 17 36 C13.72444392 35.52998967 13.72444392 35.52998967 9.9375 35.375 C7.648125 35.25125 5.35875 35.1275 3 35 C3 41.6 3 48.2 3 55 C2.01 55 1.02 55 0 55 C0 36.85 0 18.7 0 0 Z M3 4 C3 12.91 3 21.82 3 31 C7.269375 31.1546875 7.269375 31.1546875 11.625 31.3125 C12.51010254 31.35802002 13.39520508 31.40354004 14.30712891 31.45043945 C18.40726657 31.52195885 21.18065068 31.33376021 24.4609375 28.73046875 C28.61306224 24.26533769 29.47019001 21.24222037 29.3125 15.25 C28.81407003 11.66130423 27.4031417 9.65610399 25 7 C20.07151727 3.89769614 16.23986204 3.61606675 10.625 3.8125 C8.10875 3.874375 5.5925 3.93625 3 4 Z " fill="#010C08" transform="translate(507,572)"/>
<path d="M0 0 C1.2739902 0.76560456 2.54406512 1.53772626 3.8125 2.3125 C4.52019531 2.74175781 5.22789062 3.17101562 5.95703125 3.61328125 C7.90597735 4.93617965 9.34544711 6.33700551 11 8 C12.54269375 9.1316741 14.10749413 10.2335321 15.6875 11.3125 C20.21107308 14.43449611 24.62984619 17.66745254 29 21 C23.1111401 40.76337073 23.1111401 40.76337073 20 50 C14.7400657 45.24812753 12.89758111 37.95299312 10.7734375 31.375 C8.64054611 24.82551531 6.27071079 18.4733253 3.3125 12.25 C1.35555537 8.06598035 0.30656448 4.5984672 0 0 Z " fill="#1B1464" transform="translate(713,372)"/>
<path d="M0 0 C1.32 0 2.64 0 4 0 C4 8.58 4 17.16 4 26 C12.25 26 20.5 26 29 26 C29 17.42 29 8.84 29 0 C30.32 0 31.64 0 33 0 C33 18.15 33 36.3 33 55 C31.68 55 30.36 55 29 55 C29 46.75 29 38.5 29 30 C20.75 30 12.5 30 4 30 C4 38.25 4 46.5 4 55 C2.68 55 1.36 55 0 55 C0 36.85 0 18.7 0 0 Z " fill="#010C08" transform="translate(622,572)"/>
<path d="M0 0 C2.81486134 2.01497666 4.15328431 4.26865144 5.80078125 7.2890625 C3.82078125 8.2790625 3.82078125 8.2790625 1.80078125 9.2890625 C1.05828125 8.5053125 0.31578125 7.7215625 -0.44921875 6.9140625 C-4.37038874 3.17112751 -5.63549541 2.26424149 -11.13671875 2.3515625 C-15.46852078 3.04659044 -17.57453136 4.70994333 -20.19921875 8.2890625 C-21.15248183 11.40305523 -21.57165015 13.26341373 -20.453125 16.34375 C-18.92640022 18.71231368 -17.78585628 19.28457452 -15.19921875 20.3515625 C-14.39871094 20.68671875 -13.59820312 21.021875 -12.7734375 21.3671875 C-10.20751834 22.28609026 -7.65540041 22.94564148 -5.01171875 23.6015625 C0.17710347 25.06445475 2.99777518 27.73805633 5.80078125 32.2890625 C7.35495744 36.95159108 7.34526927 40.77659577 5.67578125 45.4140625 C3.10757048 49.35198568 0.0585296 52.16018833 -4.19921875 54.2890625 C-10.41093245 54.81685517 -15.95756775 55.03309893 -21.19921875 51.2890625 C-24.166761 48.40237971 -26.70838222 45.54297907 -27.19921875 41.2890625 C-25.21921875 40.7940625 -25.21921875 40.7940625 -23.19921875 40.2890625 C-22.36390625 41.68125 -22.36390625 41.68125 -21.51171875 43.1015625 C-19.14508959 46.36367296 -17.89078883 47.77887474 -14.19921875 49.2890625 C-10.20617241 49.87341074 -7.11805799 49.67701684 -3.38671875 48.1015625 C-0.76425227 45.9286617 0.52845568 44.46987641 1.80078125 41.2890625 C1.99418838 38.43346307 1.89852339 35.94369853 0.80078125 33.2890625 C-2.70892394 29.84282395 -5.92847035 28.53128587 -10.63671875 27.2890625 C-17.2279148 25.3601136 -21.37237799 24.14350119 -25.19921875 18.1640625 C-26.90320762 13.42962637 -26.04659994 8.86870494 -24.19921875 4.2890625 C-18.00486772 -3.68570081 -8.46792162 -4.57103342 0 0 Z " fill="#010C08" transform="translate(411.19921875,573.7109375)"/>
<path d="M0 0 C1.65 0 3.3 0 5 0 C6 1 6 1 6.12025452 3.01844788 C6.11803391 3.90447189 6.11581329 4.79049591 6.11352539 5.70336914 C6.11344986 6.70433121 6.11337433 7.70529327 6.11329651 8.73658752 C6.10813522 9.8251152 6.10297394 10.91364288 6.09765625 12.03515625 C6.0962413 13.14354355 6.09482635 14.25193085 6.09336853 15.39390564 C6.08775033 18.95013069 6.07519475 22.50629383 6.0625 26.0625 C6.05748734 28.46679597 6.05292403 30.87109292 6.04882812 33.27539062 C6.03777499 39.18361504 6.02101917 45.0918031 6 51 C6.69150146 50.99476318 7.38300293 50.98952637 8.09545898 50.98413086 C11.20946352 50.963425 14.32345361 50.95036037 17.4375 50.9375 C18.52611328 50.92912109 19.61472656 50.92074219 20.73632812 50.91210938 C21.77080078 50.90888672 22.80527344 50.90566406 23.87109375 50.90234375 C24.82943115 50.89710693 25.78776855 50.89187012 26.77514648 50.88647461 C29 51 29 51 30 52 C30 53.65 30 55.3 30 57 C20.1 57 10.2 57 0 57 C0 38.19 0 19.38 0 0 Z " fill="#010C08" transform="translate(332,571)"/>
<path d="M0 0 C8.91 0 17.82 0 27 0 C27 1.32 27 2.64 27 4 C19.41 4 11.82 4 4 4 C4 11.26 4 18.52 4 26 C9.94 26 15.88 26 22 26 C22 27.32 22 28.64 22 30 C16.06 30 10.12 30 4 30 C4 36.93 4 43.86 4 51 C11.59 51 19.18 51 27 51 C27 52.32 27 53.64 27 55 C18.09 55 9.18 55 0 55 C0 36.85 0 18.7 0 0 Z " fill="#010C08" transform="translate(990,572)"/>
<path d="M0 0 C11.55 0 23.1 0 35 0 C35 1.32 35 2.64 35 4 C29.72 4 24.44 4 19 4 C19 20.83 19 37.66 19 55 C17.68 55 16.36 55 15 55 C15 38.17 15 21.34 15 4 C10.05 4 5.1 4 0 4 C0 2.68 0 1.36 0 0 Z " fill="#010C08" transform="translate(420,572)"/>
<path d="M0 0 C11.22 0 22.44 0 34 0 C34 1.32 34 2.64 34 4 C29.05 4 24.1 4 19 4 C19 20.83 19 37.66 19 55 C17.68 55 16.36 55 15 55 C15 38.17 15 21.34 15 4 C10.05 4 5.1 4 0 4 C0 2.68 0 1.36 0 0 Z " fill="#010C08" transform="translate(950,572)"/>
<path d="M0 0 C1.32 0 2.64 0 4 0 C4 16.83 4 33.66 4 51 C11.92 51 19.84 51 28 51 C28 52.32 28 53.64 28 55 C18.76 55 9.52 55 0 55 C0 36.85 0 18.7 0 0 Z " fill="#010C08" transform="translate(828,572)"/>
<path d="M0 0 C1.32 0 2.64 0 4 0 C7.96 6.93 11.92 13.86 16 21 C16.33 14.07 16.66 7.14 17 0 C17.99 0 18.98 0 20 0 C20 9.24 20 18.48 20 28 C18.68 28 17.36 28 16 28 C10.06 17.605 10.06 17.605 4 7 C3.67 13.93 3.34 20.86 3 28 C2.01 28 1.02 28 0 28 C0 18.76 0 9.52 0 0 Z " fill="#010C08" transform="translate(558,646)"/>
<path d="M0 0 C3.96 0 7.92 0 12 0 C16 4 16 4 16.3125 7 C16 10 16 10 15.375 12.125 C14.77838661 14.05927372 14.77838661 14.05927372 16 15.8125 C17.52687087 19.15253003 16.88842778 21.509748 16 25 C12 28 12 28 0 28 C0 18.76 0 9.52 0 0 Z M3 2 C3 5.3 3 8.6 3 12 C8.32170494 12.29562367 8.32170494 12.29562367 13 10 C13.2502157 6.91634129 13.2502157 6.91634129 13 4 C9.5980513 1.90649311 6.94727588 1.82057837 3 2 Z M3 14 C3 17.63 3 21.26 3 25 C7.50901363 25.17957899 7.50901363 25.17957899 12 25 C14.28056299 23.11625538 14.28056299 23.11625538 14.4375 20.0625 C14.31981867 16.87355402 14.31981867 16.87355402 11.875 15.125 C8.70243155 13.88356017 6.37694418 13.76439924 3 14 Z " fill="#010C08" transform="translate(760,646)"/>
<path d="M0 0 C1.32 0 2.64 0 4 0 C4 18.15 4 36.3 4 55 C2.68 55 1.36 55 0 55 C0 36.85 0 18.7 0 0 Z " fill="#010C08" transform="translate(940,572)"/>
<path d="M0 0 C1.32 0 2.64 0 4 0 C4 18.15 4 36.3 4 55 C2.68 55 1.36 55 0 55 C0 36.85 0 18.7 0 0 Z " fill="#010C08" transform="translate(862,572)"/>
<path d="M0 0 C12.78947368 0 12.78947368 0 17 4 C20.01915819 8.42809867 20.90587108 12.72762672 20 18 C18.63550802 21.86991511 16.71070268 24.47543373 13.375 26.9375 C10 28 10 28 0 28 C0 18.76 0 9.52 0 0 Z M3 2 C3 9.59 3 17.18 3 25 C9.28321608 25.48045589 9.28321608 25.48045589 13.375 22.625 C16.62792322 19.37207678 16.9293132 18.84824164 17.3125 14.25 C17.24840569 9.84351599 15.94670378 7.34490699 13 4 C9.28342354 1.90346969 7.46158775 2 3 2 Z " fill="#010C08" transform="translate(590,646)"/>
<path d="M0 0 C-2.72232305 8.33030853 -2.72232305 8.33030853 -4.0625 11.5625 C-4.8998262 13.73954812 -5.46315684 15.79860327 -6 18.0625 C-6.68570543 20.9413744 -7.49680344 23.42309162 -9 26 C-12.01781947 24.49109026 -12.52251548 22.0096907 -14 19 C-15.61791292 16.30186379 -17.30017566 13.64715728 -19 11 C-15.96453199 7.6938999 -12.81374535 5.49793411 -8.9375 3.25 C-7.89464844 2.63640625 -6.85179687 2.0228125 -5.77734375 1.390625 C-3 0 -3 0 0 0 Z " fill="#2B9AD3" transform="translate(661,520)"/>
<path d="M0 0 C12 0 12 0 15.25 2 C17.66865129 6.14625936 17.60494085 8.23609083 17 13 C15.625 15.5 15.625 15.5 14 17 C13.34 17 12.68 17 12 17 C12.3609375 17.62648438 12.721875 18.25296875 13.09375 18.8984375 C13.5578125 19.71570313 14.021875 20.53296875 14.5 21.375 C14.9640625 22.18710937 15.428125 22.99921875 15.90625 23.8359375 C17 26 17 26 17 28 C16.01 28 15.02 28 14 28 C13.70867187 27.36191406 13.41734375 26.72382812 13.1171875 26.06640625 C11.8742048 23.56089709 10.65053278 21.26041957 9 19 C5.84050318 17.78717711 5.84050318 17.78717711 3 18 C3 21.3 3 24.6 3 28 C2.01 28 1.02 28 0 28 C0 18.76 0 9.52 0 0 Z M3 2 C3 6.29 3 10.58 3 15 C7.52796653 15.33565076 7.52796653 15.33565076 12 15 C14.53019615 12.39538631 15 10.97848283 15 7.375 C13.62709238 4.1143444 12.23296538 3.36502983 9 2 C7.02 2 5.04 2 3 2 Z " fill="#010C08" transform="translate(401,646)"/>
<path d="M0 0 C12 0 12 0 15.25 2 C17.68288481 6.17065967 17.68424771 8.21026601 17 13 C15 15.5 15 15.5 13 17 C14.2125738 20.72433382 15.50859979 24.37802806 17 28 C15.11328125 27.75 15.11328125 27.75 13 27 C11.98046875 25.1875 11.98046875 25.1875 11.1875 23 C10.28924009 20.81164296 10.28924009 20.81164296 9 19 C5.37346335 17.86043273 5.37346335 17.86043273 2 18 C2 21.3 2 24.6 2 28 C1.34 28 0.68 28 0 28 C0 18.76 0 9.52 0 0 Z M2 2 C2 6.29 2 10.58 2 15 C3.423125 15.061875 4.84625 15.12375 6.3125 15.1875 C7.11300781 15.22230469 7.91351562 15.25710938 8.73828125 15.29296875 C11.51283114 14.9335711 12.29785016 14.16589344 14 12 C15.00478037 10.1477633 15.00478037 10.1477633 15 8 C13.84425989 5.26816301 13.84425989 5.26816301 12 3 C8.52674819 1.8422494 5.63932552 1.93133348 2 2 Z " fill="#010C08" transform="translate(638,646)"/>
<path d="M0 0 C1.32 0.33 2.64 0.66 4 1 C5.28027344 3.26904297 5.28027344 3.26904297 6.359375 6.2421875 C6.75253906 7.30824219 7.14570312 8.37429688 7.55078125 9.47265625 C7.94652344 10.59542969 8.34226562 11.71820312 8.75 12.875 C9.16121094 13.99003906 9.57242188 15.10507812 9.99609375 16.25390625 C13 24.52712313 13 24.52712313 13 28 C12.01 28 11.02 28 10 28 C9.34 26.02 8.68 24.04 8 22 C3.71 21.67 -0.58 21.34 -5 21 C-5.33 22.65 -5.66 24.3 -6 26 C-6.33 26.66 -6.66 27.32 -7 28 C-7.99 27.67 -8.98 27.34 -10 27 C-6.7 18.09 -3.4 9.18 0 0 Z M1 5 C-0.65 9.62 -2.3 14.24 -4 19 C-0.37 19 3.26 19 7 19 C6.319375 16.64875 6.319375 16.64875 5.625 14.25 C5.36976563 13.36828125 5.11453125 12.4865625 4.8515625 11.578125 C4.0790066 9.23919428 3.16374324 7.16557438 2 5 C1.67 5 1.34 5 1 5 Z " fill="#010C08" transform="translate(535,646)"/>
<path d="M0 0 C1.32 0 2.64 0 4 0 C5.50776616 4.10135565 7.00487576 8.20652067 8.5 12.3125 C8.92925781 13.47974609 9.35851562 14.64699219 9.80078125 15.84960938 C10.20683594 16.96787109 10.61289062 18.08613281 11.03125 19.23828125 C11.40830078 20.26993408 11.78535156 21.30158691 12.17382812 22.36450195 C13 25 13 25 13 28 C12.01 27.67 11.02 27.34 10 27 C9.34 25.35 8.68 23.7 8 22 C4.04 22 0.08 22 -4 22 C-4.99 23.98 -5.98 25.96 -7 28 C-7.66 28 -8.32 28 -9 28 C-7.67554915 21.37105659 -5.78331885 15.24709958 -3.375 8.9375 C-2.88773438 7.6390918 -2.88773438 7.6390918 -2.390625 6.31445312 C-1.59908318 4.20755504 -0.80216278 2.10287198 0 0 Z M1 5 C0.32739649 6.76858691 -0.33788395 8.53996016 -1 10.3125 C-1.37125 11.29863281 -1.7425 12.28476562 -2.125 13.30078125 C-3.15418502 16.00271656 -3.15418502 16.00271656 -3 19 C0.3 19 3.6 19 7 19 C6.21824485 14.15311808 4.60155722 9.6233633 3 5 C2.34 5 1.68 5 1 5 Z " fill="#010C08" transform="translate(737,646)"/>
<path d="M0 0 C1.77734375 1.52734375 1.77734375 1.52734375 3 3 C2.67 3.99 2.34 4.98 2 6 C1.29875 5.505 0.5975 5.01 -0.125 4.5 C-3.37119719 2.8063319 -5.39340156 2.74837685 -9 3 C-9.33 5.31 -9.66 7.62 -10 10 C-9.31292969 10.18175781 -8.62585938 10.36351562 -7.91796875 10.55078125 C-7.01691406 10.80214844 -6.11585938 11.05351563 -5.1875 11.3125 C-4.29417969 11.55613281 -3.40085937 11.79976562 -2.48046875 12.05078125 C0.08955673 13.03427132 1.29793788 13.8710715 3 16 C4.31452598 19.47410437 4.09925431 20.75422742 2.6875 24.25 C1 27 1 27 -1 28 C-8.11588642 28.69992325 -8.11588642 28.69992325 -12 25.625 C-14 23 -14 23 -14 21 C-11.42776477 21.45932772 -10.09495764 21.9203581 -8.0625 23.625 C-6.02668343 25.3025209 -6.02668343 25.3025209 -3.25 24.6875 C-2.5075 24.460625 -1.765 24.23375 -1 24 C-0.32198966 21.09926819 -0.32198966 21.09926819 0 18 C-2.66184973 15.33815027 -5.34187787 14.89151197 -8.90625 13.87890625 C-11 13 -11 13 -13 10 C-13.44710264 6.497696 -13.40404695 4.66755584 -11.5625 1.625 C-7.89506113 -0.70069294 -4.23991022 -0.86672198 0 0 Z " fill="#010C08" transform="translate(472,646)"/>
<path d="M0 0 C0.66 0 1.32 0 2 0 C2.02505615 0.58491211 2.0501123 1.16982422 2.07592773 1.77246094 C2.19222962 4.43184471 2.31480067 7.09090403 2.4375 9.75 C2.47681641 10.67039062 2.51613281 11.59078125 2.55664062 12.5390625 C2.59853516 13.42851563 2.64042969 14.31796875 2.68359375 15.234375 C2.72025146 16.05131836 2.75690918 16.86826172 2.79467773 17.70996094 C2.99134275 19.9034423 3.40300594 21.88396413 4 24 C5.45742463 24.08096803 6.91612807 24.13917774 8.375 24.1875 C9.59316406 24.23970703 9.59316406 24.23970703 10.8359375 24.29296875 C11.55007813 24.19628906 12.26421875 24.09960938 13 24 C15.12280563 20.81579155 15.28019537 19.79462745 15.4140625 16.11328125 C15.45273437 15.17548828 15.49140625 14.23769531 15.53125 13.27148438 C15.57765625 11.80678711 15.57765625 11.80678711 15.625 10.3125 C15.68300781 8.83040039 15.68300781 8.83040039 15.7421875 7.31835938 C15.83645867 4.87909293 15.92206218 2.43983405 16 0 C16.99 0 17.98 0 19 0 C19.05437005 2.85442753 19.09384974 5.70780076 19.125 8.5625 C19.15013672 9.76229492 19.15013672 9.76229492 19.17578125 10.98632812 C19.22193847 16.64058723 19.20579045 22.46742578 15.3125 26.9375 C11.410209 28.73044452 7.71026783 28.60090491 3.6875 27.1875 C2 26 2 26 0 23 C-0.22705078 20.5480957 -0.22705078 20.5480957 -0.1953125 17.67578125 C-0.18886719 16.64775391 -0.18242187 15.61972656 -0.17578125 14.56054688 C-0.15064453 12.95276367 -0.15064453 12.95276367 -0.125 11.3125 C-0.11597656 10.22904297 -0.10695313 9.14558594 -0.09765625 8.02929688 C-0.0740734 5.3526429 -0.04116126 2.67643203 0 0 Z " fill="#010C08" transform="translate(429,646)"/>
<path d="M0 0 C4.62 0 9.24 0 14 0 C14 0.66 14 1.32 14 2 C10.04 2 6.08 2 2 2 C2 5.63 2 9.26 2 13 C5.3 13 8.6 13 12 13 C12 13.66 12 14.32 12 15 C8.7 15 5.4 15 2 15 C2 18.3 2 21.6 2 25 C5.96 25 9.92 25 14 25 C14 25.99 14 26.98 14 28 C9.38 28 4.76 28 0 28 C0 18.76 0 9.52 0 0 Z " fill="#010C08" transform="translate(812,646)"/>
<path d="M0 0 C4.29 0 8.58 0 13 0 C13 0.66 13 1.32 13 2 C9.37 2 5.74 2 2 2 C2 5.63 2 9.26 2 13 C4.97 13 7.94 13 11 13 C11 13.66 11 14.32 11 15 C8.03 15 5.06 15 2 15 C2 18.3 2 21.6 2 25 C5.63 25 9.26 25 13 25 C13 25.99 13 26.98 13 28 C8.71 28 4.42 28 0 28 C0 18.76 0 9.52 0 0 Z " fill="#010C08" transform="translate(666,646)"/>
<path d="M0 0 C5.61 0 11.22 0 17 0 C17 0.66 17 1.32 17 2 C14.69 2 12.38 2 10 2 C10 10.58 10 19.16 10 28 C9.01 28 8.02 28 7 28 C7 19.42 7 10.84 7 2 C4.69 2 2.38 2 0 2 C0 1.34 0 0.68 0 0 Z " fill="#010C08" transform="translate(484,646)"/>
<path d="M0 0 C5.61 0 11.22 0 17 0 C17 0.66 17 1.32 17 2 C14.69 2 12.38 2 10 2 C10 10.58 10 19.16 10 28 C9.01 28 8.02 28 7 28 C7 19.42 7 10.84 7 2 C4.69 2 2.38 2 0 2 C0 1.34 0 0.68 0 0 Z " fill="#010C08" transform="translate(374,646)"/>
<path d="M0 0 C0.66 0 1.32 0 2 0 C2 8.25 2 16.5 2 25 C5.96 25 9.92 25 14 25 C14 25.99 14 26.98 14 28 C9.38 28 4.76 28 0 28 C0 18.76 0 9.52 0 0 Z " fill="#010C08" transform="translate(788,646)"/>
<path d="M0 0 C0.66 0 1.32 0 2 0 C2 8.25 2 16.5 2 25 C5.96 25 9.92 25 14 25 C14 25.99 14 26.98 14 28 C9.38 28 4.76 28 0 28 C0 18.76 0 9.52 0 0 Z " fill="#010C08" transform="translate(691,646)"/>
<path d="M0 0 C0.66 0 1.32 0 2 0 C2 9.24 2 18.48 2 28 C1.34 28 0.68 28 0 28 C0 18.76 0 9.52 0 0 Z " fill="#010C08" transform="translate(715,646)"/>
<path d="M0 0 C0.66 0.66 1.32 1.32 2 2 C1.34 2 0.68 2 0 2 C0 1.34 0 0.68 0 0 Z " fill="#F26522" transform="translate(595,558)"/>
<path d="" fill="#DBCD2D" transform="translate(0,0)"/>
<path d="" fill="#DBCD2D" transform="translate(0,0)"/>
<path d="" fill="#DBCD2D" transform="translate(0,0)"/>
<path d="" fill="#1B1464" transform="translate(0,0)"/>
<path d="" fill="#1B1464" transform="translate(0,0)"/>
<path d="" fill="#1B1464" transform="translate(0,0)"/>
<path d="" fill="#1B1464" transform="translate(0,0)"/>
</svg>
